<svg viewBox="0 0 21 21" xmlns="http://www.w3.org/2000/svg">
	<g fill="none" stroke="currentColor" stroke-linecap="round" stroke-linejoin="round" stroke-width="1.4">
		<path d="M3.15 4.15L17.85 18.85" />
		<path d="M7.1 4.65C8.2 4.08 9.42 3.75 10.8 3.75C15.2 3.75 18 7.47 19 9.5C19.35 10.22 19.35 11.05 19 11.77C18.62 12.53 18.02 13.52 17.18 14.45" />
		<path d="M14.1 16.65C13.1 17.18 12 17.52 10.8 17.52C6.4 17.52 3.6 13.8 2.6 11.77C2.25 11.05 2.25 10.22 2.6 9.5C2.96 8.77 3.53 7.82 4.33 6.92" />
		<path d="M8.65 8.52C8.04 9.08 7.66 9.88 7.66 10.77C7.66 12.5 9.07 13.91 10.8 13.91C11.69 13.91 12.49 13.53 13.05 12.92" />
		<path d="M10.05 7.72C10.29 7.66 10.54 7.63 10.8 7.63C12.53 7.63 13.94 9.04 13.94 10.77C13.94 11.03 13.91 11.28 13.85 11.52" />
	</g>
</svg>
